<svg xmlns="http://www.w3.org/2000/svg" viewBox="0 0 256.37 256.37"><defs><style>.cls-1{font-size:26.2px;fill:#1d1d1b;font-family:Constantia;}.cls-2{fill:none;stroke:#1d1d1b;stroke-miterlimit:10;}</style></defs><title>Asset 4</title><g id="Layer_2" data-name="Layer 2"><g id="Layer_1-2" data-name="Layer 1"><text class="cls-1" transform="translate(69.47 47.58) rotate(-30.16)">H</text><text class="cls-1" transform="translate(86.97 37.52) rotate(-19.36)">A</text><text class="cls-1" transform="matrix(0.99, -0.17, 0.17, 0.99, 103.24, 31.81)">R</text><text class="cls-1" transform="matrix(1, -0.02, 0.02, 1, 118.04, 29.16)">V</text><text class="cls-1" transform="translate(132.8 28.72) rotate(7.67)">A</text><text class="cls-1" transform="matrix(0.95, 0.3, -0.3, 0.95, 149.86, 31.03)">R</text><text class="cls-1" transform="matrix(0.89, 0.46, -0.46, 0.89, 165.29, 35.65)">D</text><text class="cls-1" transform="translate(182.27 44.97) rotate(34.97)"> </text><text class="cls-1" transform="matrix(0.75, 0.66, -0.66, 0.75, 187.35, 48.09)">A</text><text class="cls-1" transform="matrix(0.63, 0.78, -0.78, 0.63, 200.25, 59.54)">R</text><text class="cls-1" transform="translate(209.97 71.48) rotate(59.84)">T</text><text class="cls-1" transform="matrix(0.41, 0.91, -0.91, 0.41, 217.49, 84.85)"> </text><text class="cls-1" transform="matrix(0.27, 0.96, -0.96, 0.27, 220.65, 90.3)">M</text><text class="cls-1" transform="translate(226.64 112.63) rotate(86.68)">U</text><text class="cls-1" transform="translate(227.53 131.66) rotate(95.79)">S</text><text class="cls-1" transform="translate(226.31 144.62) rotate(103.85)">E</text><text class="cls-1" transform="translate(222.98 159.05) rotate(113.67)">U</text><text class="cls-1" transform="translate(215.64 176.48) rotate(125.77)">M</text><text class="cls-1" transform="translate(201.74 195.06) rotate(136.12)">S</text><text class="cls-1" transform="matrix(-0.79, 0.62, -0.62, -0.79, 192.12, 204.09)"> </text><text class="cls-1" transform="translate(187.48 208.37) rotate(149.43)">H</text><text class="cls-1" transform="translate(170.03 218.57) rotate(160.24)">A</text><text class="cls-1" transform="translate(153.83 224.38) rotate(169.91)">R</text><text class="cls-1" transform="translate(139.08 227.17) rotate(178.81)">V</text><text class="cls-1" transform="translate(124.28 227.68) rotate(-172.73)">A</text><text class="cls-1" transform="matrix(-0.96, -0.29, 0.29, -0.96, 107.19, 225.5)">R</text><text class="cls-1" transform="translate(91.76 220.99) rotate(-152.86)">D</text><text class="cls-1" transform="translate(74.7 211.79) rotate(-145.44)"> </text><text class="cls-1" transform="translate(69.59 208.7) rotate(-138.84)">A</text><text class="cls-1" transform="translate(56.62 197.35) rotate(-129.29)">R</text><text class="cls-1" transform="matrix(-0.51, -0.86, 0.86, -0.51, 46.82, 185.48)">T</text><text class="cls-1" transform="translate(39.19 172.14) rotate(-114.42)"> </text><text class="cls-1" transform="translate(36 166.73) rotate(-105.84)">M</text><text class="cls-1" transform="translate(29.85 144.46) rotate(-93.73)">U</text><text class="cls-1" transform="translate(28.82 125.42) rotate(-84.62)">S</text><text class="cls-1" transform="matrix(0.23, -0.97, 0.97, 0.23, 29.95, 112.44)">E</text><text class="cls-1" transform="matrix(0.39, -0.92, 0.92, 0.39, 33.18, 98.01)">U</text><text class="cls-1" transform="matrix(0.58, -0.82, 0.82, 0.58, 40.4, 80.5)">M</text><text class="cls-1" transform="matrix(0.72, -0.7, 0.7, 0.72, 54.16, 61.84)">S</text><circle class="cls-2" cx="128.19" cy="128.19" r="127.69"/><line class="cls-2" x1="89.72" y1="167.22" x2="166.66" y2="89.15"/></g></g></svg>