<svg xmlns="http://www.w3.org/2000/svg" viewBox="0 0 257.37 257.37"><defs><style>.cls-1{font-size:47.5px;fill:#1d1d1b;font-family:Constantia;}.cls-2,.cls-3{fill:none;stroke:#1d1d1b;stroke-miterlimit:10;}.cls-2{stroke-width:2px;}</style></defs><title>Asset 12</title><g id="Layer_2" data-name="Layer 2"><g id="Layer_1-2" data-name="Layer 1"><text class="cls-1" transform="matrix(0.91, -0.41, 0.41, 0.91, 76.2, 58.32)">H</text><text class="cls-1" transform="matrix(1, -0.05, 0.05, 1, 108.48, 43.82)">A</text><text class="cls-1" transform="translate(138.57 42.19) rotate(16.41)">R</text><text class="cls-1" transform="translate(163.9 48.88) rotate(34.39)">V</text><text class="cls-1" transform="translate(185.78 62.75) rotate(51.43)">A</text><text class="cls-1" transform="translate(204.68 86.2) rotate(70.71)">R</text><text class="cls-1" transform="translate(214.73 112.38) rotate(91)">D</text><text class="cls-1" transform="matrix(-0.27, 0.96, -0.96, -0.27, 212.8, 146.46)"> </text><text class="cls-1" transform="translate(211.38 156.55) rotate(119.25)">A</text><text class="cls-1" transform="translate(196.79 182.89) rotate(138.42)">R</text><text class="cls-1" transform="translate(176.94 201.06) rotate(155.91)">T</text><text class="cls-1" transform="translate(152.06 211.42) rotate(168.26)"> </text><text class="cls-1" transform="translate(142.21 216.02) rotate(-174.79)">M</text><text class="cls-1" transform="translate(101.82 212.04) rotate(-150.45)">U</text><text class="cls-1" transform="matrix(-0.67, -0.74, 0.74, -0.67, 73.09, 195.07)">S</text><text class="cls-1" transform="translate(57.57 178.55) rotate(-115.95)">E</text><text class="cls-1" transform="matrix(-0.11, -0.99, 0.99, -0.11, 45.41, 155.78)">U</text><text class="cls-1" transform="matrix(0.31, -0.95, 0.95, 0.31, 40.46, 122.91)">M</text><text class="cls-1" transform="matrix(0.63, -0.78, 0.78, 0.63, 54.16, 84.57)">S</text><circle class="cls-2" cx="128.69" cy="128.69" r="127.69"/><line class="cls-3" x1="90.22" y1="167.72" x2="167.16" y2="89.65"/></g></g></svg>